# xmcd
#
# Track frame offsets: 
#        150
#        37733
#        74550
#        131015
#        174704
#        207589
#        265481
#        309944
#
# Disc length: 4548 seconds
#
# Revision: 0
# Processed by: cddbd v1.5.2PL0 Copyright (c) Steve Scherf et al.
# Submitted via: ExactAudioCopy v1.0b1
#
DISCID=7611c208
DTITLE=SaRon Crenshaw - Tight Cranky and Loose
DYEAR=1900
DGENRE=Blues
TTITLE0=Tight Cranky and Loose
TTITLE1=Still Around
TTITLE2=Built For Comfort
TTITLE3=You're Gonna Need Me
TTITLE4=Guitar Man
TTITLE5=I Can't Hear Nothin' But The Blues
TTITLE6=Let's Straitin' It Out
TTITLE7=Hey Baby Please Come Home
EXTD=
EXTT0=
EXTT1=
EXTT2=
EXTT3=
EXTT4=
EXTT5=
EXTT6=
EXTT7=
PLAYORDER=
